%TF.GenerationSoftware,KiCad,Pcbnew,9.0.0*%
%TF.CreationDate,2026-02-12T20:53:49+05:30*%
%TF.ProjectId,pcb,7063622e-6b69-4636-9164-5f7063625858,rev?*%
%TF.SameCoordinates,Original*%
%TF.FileFunction,Copper,L2,Bot*%
%TF.FilePolarity,Positive*%
%FSLAX46Y46*%
G04 Gerber Fmt 4.6, Leading zero omitted, Abs format (unit mm)*
G04 Created by KiCad (PCBNEW 9.0.0) date 2026-02-12 20:53:49*
%MOMM*%
%LPD*%
G01*
G04 APERTURE LIST*
G04 Aperture macros list*
%AMRoundRect*
0 Rectangle with rounded corners*
0 $1 Rounding radius*
0 $2 $3 $4 $5 $6 $7 $8 $9 X,Y pos of 4 corners*
0 Add a 4 corners polygon primitive as box body*
4,1,4,$2,$3,$4,$5,$6,$7,$8,$9,$2,$3,0*
0 Add four circle primitives for the rounded corners*
1,1,$1+$1,$2,$3*
1,1,$1+$1,$4,$5*
1,1,$1+$1,$6,$7*
1,1,$1+$1,$8,$9*
0 Add four rect primitives between the rounded corners*
20,1,$1+$1,$2,$3,$4,$5,0*
20,1,$1+$1,$4,$5,$6,$7,0*
20,1,$1+$1,$6,$7,$8,$9,0*
20,1,$1+$1,$8,$9,$2,$3,0*%
G04 Aperture macros list end*
%TA.AperFunction,ComponentPad*%
%ADD10C,2.400000*%
%TD*%
%TA.AperFunction,ComponentPad*%
%ADD11R,2.400000X2.400000*%
%TD*%
%TA.AperFunction,ComponentPad*%
%ADD12R,3.500000X2.500000*%
%TD*%
%TA.AperFunction,ComponentPad*%
%ADD13O,3.500000X2.500000*%
%TD*%
%TA.AperFunction,ComponentPad*%
%ADD14C,1.600000*%
%TD*%
%TA.AperFunction,ComponentPad*%
%ADD15O,1.600000X1.600000*%
%TD*%
%TA.AperFunction,ComponentPad*%
%ADD16RoundRect,0.250000X0.550000X0.550000X-0.550000X0.550000X-0.550000X-0.550000X0.550000X-0.550000X0*%
%TD*%
%TA.AperFunction,ComponentPad*%
%ADD17R,1.700000X1.700000*%
%TD*%
%TA.AperFunction,ComponentPad*%
%ADD18C,1.700000*%
%TD*%
%TA.AperFunction,ComponentPad*%
%ADD19R,1.600000X1.600000*%
%TD*%
%TA.AperFunction,ComponentPad*%
%ADD20C,3.000000*%
%TD*%
%TA.AperFunction,ComponentPad*%
%ADD21C,2.500000*%
%TD*%
%TA.AperFunction,ComponentPad*%
%ADD22R,2.600000X2.600000*%
%TD*%
%TA.AperFunction,ComponentPad*%
%ADD23O,2.600000X2.600000*%
%TD*%
%TA.AperFunction,ComponentPad*%
%ADD24C,1.800000*%
%TD*%
%TA.AperFunction,ComponentPad*%
%ADD25RoundRect,0.250000X1.050000X-1.050000X1.050000X1.050000X-1.050000X1.050000X-1.050000X-1.050000X0*%
%TD*%
%TA.AperFunction,ComponentPad*%
%ADD26C,2.600000*%
%TD*%
%TA.AperFunction,ComponentPad*%
%ADD27C,1.400000*%
%TD*%
%TA.AperFunction,ComponentPad*%
%ADD28O,1.400000X1.400000*%
%TD*%
%TA.AperFunction,ComponentPad*%
%ADD29R,1.800000X1.800000*%
%TD*%
%TA.AperFunction,ComponentPad*%
%ADD30R,2.500000X3.500000*%
%TD*%
%TA.AperFunction,ComponentPad*%
%ADD31O,2.500000X3.500000*%
%TD*%
%TA.AperFunction,ComponentPad*%
%ADD32C,1.000000*%
%TD*%
%TA.AperFunction,ViaPad*%
%ADD33C,0.600000*%
%TD*%
%TA.AperFunction,Conductor*%
%ADD34C,3.000000*%
%TD*%
%TA.AperFunction,Conductor*%
%ADD35C,1.000000*%
%TD*%
%TA.AperFunction,Conductor*%
%ADD36C,0.200000*%
%TD*%
G04 APERTURE END LIST*
D10*
%TO.P,F2,1*%
%TO.N,Net-(Q2-C)*%
X210110000Y-68010000D03*
%TO.P,F2,2*%
%TO.N,/12V+*%
X210110000Y-31010000D03*
%TD*%
D11*
%TO.P,C1,1*%
%TO.N,Net-(D2-K)*%
X150300000Y-39340000D03*
D10*
%TO.P,C1,2*%
%TO.N,GND_POWER*%
X150300000Y-31840000D03*
%TD*%
D12*
%TO.P,Q4,1,B*%
%TO.N,Net-(Q2-B)*%
X198150000Y-55575000D03*
D13*
%TO.P,Q4,2,C*%
%TO.N,Net-(Q2-C)*%
X198150000Y-50100000D03*
%TO.P,Q4,3,E*%
%TO.N,Net-(Q4-E)*%
X198150000Y-44625000D03*
%TD*%
D14*
%TO.P,R2,1*%
%TO.N,Net-(D2-K)*%
X166595000Y-53060000D03*
D15*
%TO.P,R2,2*%
%TO.N,Net-(Q2-E)*%
X171675000Y-53060000D03*
%TD*%
D16*
%TO.P,U4,1,~{RESET}/PC6*%
%TO.N,Net-(U4-~{RESET}{slash}PC6)*%
X135782500Y-145395000D03*
D14*
%TO.P,U4,2,PD0*%
%TO.N,unconnected-(U4-PD0-Pad2)*%
X135782500Y-142855000D03*
%TO.P,U4,3,PD1*%
%TO.N,unconnected-(U4-PD1-Pad3)*%
X135782500Y-140315000D03*
%TO.P,U4,4,PD2*%
%TO.N,unconnected-(U4-PD2-Pad4)*%
X135782500Y-137775000D03*
%TO.P,U4,5,PD3*%
%TO.N,unconnected-(U4-PD3-Pad5)*%
X135782500Y-135235000D03*
%TO.P,U4,6,PD4*%
%TO.N,unconnected-(U4-PD4-Pad6)*%
X135782500Y-132695000D03*
%TO.P,U4,7,VCC*%
%TO.N,TP_5V*%
X135782500Y-130155000D03*
%TO.P,U4,8,GND*%
%TO.N,GND_LOGIC*%
X135782500Y-127615000D03*
%TO.P,U4,9,XTAL1/PB6*%
%TO.N,Net-(U4-XTAL1{slash}PB6)*%
X135782500Y-125075000D03*
%TO.P,U4,10,XTAL2/PB7*%
%TO.N,Net-(U4-XTAL2{slash}PB7)*%
X135782500Y-122535000D03*
%TO.P,U4,11,PD5*%
%TO.N,unconnected-(U4-PD5-Pad11)*%
X135782500Y-119995000D03*
%TO.P,U4,12,PD6*%
%TO.N,unconnected-(U4-PD6-Pad12)*%
X135782500Y-117455000D03*
%TO.P,U4,13,PD7*%
%TO.N,unconnected-(U4-PD7-Pad13)*%
X135782500Y-114915000D03*
%TO.P,U4,14,PB0*%
%TO.N,/RELAY_DATA*%
X135782500Y-112375000D03*
%TO.P,U4,15,PB1*%
%TO.N,unconnected-(U4-PB1-Pad15)*%
X128162500Y-112375000D03*
%TO.P,U4,16,PB2*%
%TO.N,unconnected-(U4-PB2-Pad16)*%
X128162500Y-114915000D03*
%TO.P,U4,17,PB3*%
%TO.N,unconnected-(U4-PB3-Pad17)*%
X128162500Y-117455000D03*
%TO.P,U4,18,PB4*%
%TO.N,unconnected-(U4-PB4-Pad18)*%
X128162500Y-119995000D03*
%TO.P,U4,19,PB5*%
%TO.N,unconnected-(U4-PB5-Pad19)*%
X128162500Y-122535000D03*
%TO.P,U4,20,AVCC*%
%TO.N,TP_5V*%
X128162500Y-125075000D03*
%TO.P,U4,21,AREF*%
%TO.N,Net-(U4-AREF)*%
X128162500Y-127615000D03*
%TO.P,U4,22,GND*%
%TO.N,GND_LOGIC*%
X128162500Y-130155000D03*
%TO.P,U4,23,PC0*%
%TO.N,unconnected-(U4-PC0-Pad23)*%
X128162500Y-132695000D03*
%TO.P,U4,24,PC1*%
%TO.N,unconnected-(U4-PC1-Pad24)*%
X128162500Y-135235000D03*
%TO.P,U4,25,PC2*%
%TO.N,unconnected-(U4-PC2-Pad25)*%
X128162500Y-137775000D03*
%TO.P,U4,26,PC3*%
%TO.N,unconnected-(U4-PC3-Pad26)*%
X128162500Y-140315000D03*
%TO.P,U4,27,PC4*%
%TO.N,TP_SDA*%
X128162500Y-142855000D03*
%TO.P,U4,28,PC5*%
%TO.N,TP_SCL*%
X128162500Y-145395000D03*
%TD*%
D17*
%TO.P,T1,1,AA*%
%TO.N,Net-(J2-Pin_1)*%
X88870000Y-61790000D03*
D18*
%TO.P,T1,3,SA*%
%TO.N,Net-(D2-A)*%
X88870000Y-56710000D03*
%TO.P,T1,4,SB*%
%TO.N,Net-(D1-K)*%
X88870000Y-46550000D03*
%TO.P,T1,6,AB*%
%TO.N,Net-(T1-AB)*%
X88870000Y-41470000D03*
%TO.P,T1,7*%
%TO.N,N/C*%
X63470000Y-61790000D03*
%TO.P,T1,9*%
X63470000Y-56710000D03*
%TO.P,T1,10*%
X63470000Y-46550000D03*
%TO.P,T1,12*%
X63470000Y-41470000D03*
%TD*%
D14*
%TO.P,R3,1*%
%TO.N,Net-(D2-K)*%
X166595000Y-60530000D03*
D15*
%TO.P,R3,2*%
%TO.N,Net-(Q2-B)*%
X171675000Y-60530000D03*
%TD*%
D10*
%TO.P,F3,1*%
%TO.N,Net-(T1-AB)*%
X96790000Y-84300000D03*
%TO.P,F3,2*%
%TO.N,Net-(J3-Pin_1)*%
X59790000Y-84300000D03*
%TD*%
D19*
%TO.P,C3,1*%
%TO.N,Net-(Q2-C)*%
X136222600Y-59120000D03*
D14*
%TO.P,C3,2*%
%TO.N,GND_POWER*%
X131222600Y-59120000D03*
%TD*%
D20*
%TO.P,K1,1*%
%TO.N,/LIN1*%
X224400000Y-132750000D03*
D21*
%TO.P,K1,2*%
%TO.N,Net-(D8-K)*%
X230450000Y-130800000D03*
D20*
%TO.P,K1,3*%
%TO.N,Net-(J1-Pin_2)*%
X230450000Y-118600000D03*
%TO.P,K1,4*%
%TO.N,unconnected-(K1-Pad4)*%
X218400000Y-118550000D03*
D21*
%TO.P,K1,5*%
%TO.N,TP_5V*%
X218450000Y-130800000D03*
%TD*%
D22*
%TO.P,D4,1,K*%
%TO.N,Net-(D2-A)*%
X124970000Y-32130000D03*
D23*
%TO.P,D4,2,A*%
%TO.N,GND_POWER*%
X109730000Y-32130000D03*
%TD*%
D24*
%TO.P,J3,1,Pin_1*%
%TO.N,Net-(J3-Pin_1)*%
X46570000Y-70840000D03*
%TD*%
%TO.P,J2,1,Pin_1*%
%TO.N,Net-(J2-Pin_1)*%
X46540000Y-58590000D03*
%TD*%
D22*
%TO.P,D2,1,K*%
%TO.N,Net-(D2-K)*%
X124450000Y-59330000D03*
D23*
%TO.P,D2,2,A*%
%TO.N,Net-(D2-A)*%
X109210000Y-59330000D03*
%TD*%
D14*
%TO.P,R1,1*%
%TO.N,Net-(D2-K)*%
X166605000Y-42550000D03*
D15*
%TO.P,R1,2*%
%TO.N,Net-(Q4-E)*%
X171685000Y-42550000D03*
%TD*%
D25*
%TO.P,J1,1,Pin_1*%
%TO.N,GND_POWER*%
X247030000Y-112520000D03*
D26*
%TO.P,J1,2,Pin_2*%
%TO.N,Net-(J1-Pin_2)*%
X247030000Y-107440000D03*
%TD*%
D27*
%TO.P,R7,1*%
%TO.N,Net-(Q2-C)*%
X190520000Y-29920000D03*
D28*
%TO.P,R7,2*%
%TO.N,Net-(D5-A)*%
X190520000Y-27380000D03*
%TD*%
D29*
%TO.P,D5,1,K*%
%TO.N,GND_POWER*%
X166600000Y-24280000D03*
D24*
%TO.P,D5,2,A*%
%TO.N,Net-(D5-A)*%
X169140000Y-24280000D03*
%TD*%
D19*
%TO.P,C2,1*%
%TO.N,Net-(Q2-B)*%
X144760000Y-73412380D03*
D14*
%TO.P,C2,2*%
%TO.N,GND_POWER*%
X144760000Y-68412380D03*
%TD*%
D22*
%TO.P,D3,1,K*%
%TO.N,Net-(D2-K)*%
X125420000Y-44080000D03*
D23*
%TO.P,D3,2,A*%
%TO.N,Net-(D1-K)*%
X110180000Y-44080000D03*
%TD*%
D22*
%TO.P,D1,1,K*%
%TO.N,Net-(D1-K)*%
X109650000Y-70540000D03*
D23*
%TO.P,D1,2,A*%
%TO.N,GND_POWER*%
X124890000Y-70540000D03*
%TD*%
D10*
%TO.P,F1,1*%
%TO.N,Net-(U1-VO)*%
X174190000Y-82800000D03*
%TO.P,F1,2*%
%TO.N,Net-(Q2-C)*%
X137190000Y-82800000D03*
%TD*%
D30*
%TO.P,U1,1,GND*%
%TO.N,GND_POWER*%
X183350000Y-72700000D03*
D31*
%TO.P,U1,2,VO*%
%TO.N,Net-(U1-VO)*%
X188825000Y-72700000D03*
%TO.P,U1,3,VI*%
%TO.N,Net-(Q2-B)*%
X194300000Y-72700000D03*
%TD*%
D12*
%TO.P,Q2,1,B*%
%TO.N,Net-(Q2-B)*%
X180780000Y-55655000D03*
D13*
%TO.P,Q2,2,C*%
%TO.N,Net-(Q2-C)*%
X180780000Y-50180000D03*
%TO.P,Q2,3,E*%
%TO.N,Net-(Q2-E)*%
X180780000Y-44705000D03*
%TD*%
D32*
%TO.P,Y1,1,1*%
%TO.N,Net-(U4-XTAL2{slash}PB7)*%
X138942500Y-112975000D03*
%TO.P,Y1,2,2*%
%TO.N,Net-(U4-XTAL1{slash}PB6)*%
X141482500Y-112975000D03*
%TD*%
D33*
%TO.N,TP_5V*%
X243580000Y-126500000D03*
%TO.N,GND_LOGIC*%
X166847500Y-121442500D03*
%TO.N,GND_POWER*%
X159510000Y-97180000D03*
X159510000Y-107780000D03*
X159510000Y-115560000D03*
%TO.N,/12V+*%
X161410000Y-117300000D03*
%TO.N,/LIN1*%
X160111000Y-125321000D03*
%TO.N,TP_SDA*%
X165345000Y-133025000D03*
X163910000Y-134000000D03*
%TO.N,/RELAY_DATA*%
X207860000Y-140460000D03*
%TD*%
D34*
%TO.N,Net-(Q2-C)*%
X198150000Y-50100000D02*
X202140000Y-50100000D01*
X210110000Y-58070000D02*
X210110000Y-68010000D01*
X202140000Y-50100000D02*
X210110000Y-58070000D01*
D35*
%TO.N,TP_5V*%
X222750000Y-126500000D02*
X243580000Y-126500000D01*
X218450000Y-130800000D02*
X222750000Y-126500000D01*
D36*
%TO.N,GND_LOGIC*%
X133242500Y-130155000D02*
X135782500Y-127615000D01*
X135782500Y-127615000D02*
X160675000Y-127615000D01*
X160675000Y-127615000D02*
X166847500Y-121442500D01*
X128162500Y-130155000D02*
X133242500Y-130155000D01*
%TO.N,Net-(U4-XTAL1{slash}PB6)*%
X141482500Y-112975000D02*
X141482500Y-119375000D01*
X141482500Y-119375000D02*
X135782500Y-125075000D01*
%TO.N,Net-(U4-XTAL2{slash}PB7)*%
X138942500Y-112975000D02*
X138942500Y-119375000D01*
X138942500Y-119375000D02*
X135782500Y-122535000D01*
D34*
%TO.N,GND_POWER*%
X179062380Y-68412380D02*
X183350000Y-72700000D01*
X137560000Y-31840000D02*
X150300000Y-31840000D01*
D36*
X159510000Y-115560000D02*
X159510000Y-107780000D01*
D34*
X131222600Y-38177400D02*
X137560000Y-31840000D01*
X131222600Y-59120000D02*
X131222600Y-38177400D01*
D36*
X159510000Y-88660000D02*
X175470000Y-72700000D01*
X159510000Y-97180000D02*
X159510000Y-88660000D01*
X175470000Y-72700000D02*
X183350000Y-72700000D01*
D34*
X144760000Y-68412380D02*
X179062380Y-68412380D01*
D35*
%TO.N,/12V+*%
X122810000Y-103230000D02*
X116090000Y-109950000D01*
X119780000Y-159650000D02*
X182010000Y-159650000D01*
X191050000Y-103230000D02*
X122810000Y-103230000D01*
X182010000Y-159650000D02*
X185410000Y-156250000D01*
X178870000Y-113270000D02*
X163610000Y-113270000D01*
X116090000Y-109950000D02*
X116090000Y-155960000D01*
X161410000Y-115470000D02*
X161410000Y-117300000D01*
X217300000Y-76980000D02*
X191050000Y-103230000D01*
X116090000Y-155960000D02*
X119780000Y-159650000D01*
X210110000Y-31010000D02*
X217300000Y-38200000D01*
X185410000Y-156250000D02*
X185410000Y-119810000D01*
X217300000Y-38200000D02*
X217300000Y-76980000D01*
X185410000Y-119810000D02*
X178870000Y-113270000D01*
X161410000Y-117300000D02*
X161410000Y-117350000D01*
X163610000Y-113270000D02*
X161410000Y-115470000D01*
D34*
X210110000Y-31010000D02*
X210350000Y-31250000D01*
D36*
%TO.N,/LIN1*%
X187680000Y-141600000D02*
X187680000Y-118750000D01*
X224400000Y-144690000D02*
X217390000Y-151700000D01*
X217390000Y-151700000D02*
X197780000Y-151700000D01*
X180520000Y-111590000D02*
X162830000Y-111590000D01*
X197780000Y-151700000D02*
X187680000Y-141600000D01*
X160111000Y-114309000D02*
X160111000Y-125321000D01*
X187680000Y-118750000D02*
X180520000Y-111590000D01*
X162830000Y-111590000D02*
X160111000Y-114309000D01*
X224400000Y-132750000D02*
X224400000Y-144690000D01*
%TO.N,TP_SDA*%
X165345000Y-133025000D02*
X164885000Y-133025000D01*
X164885000Y-133025000D02*
X163910000Y-134000000D01*
%TO.N,/RELAY_DATA*%
X207860000Y-134300000D02*
X207860000Y-140460000D01*
X203950000Y-130390000D02*
X207860000Y-134300000D01*
X138360000Y-106150000D02*
X138640000Y-105870000D01*
X135782500Y-108727500D02*
X138360000Y-106150000D01*
X138640000Y-105870000D02*
X177050000Y-105870000D01*
X179430000Y-105870000D02*
X203950000Y-130390000D01*
X135782500Y-112375000D02*
X135782500Y-108727500D01*
X177050000Y-105870000D02*
X179430000Y-105870000D01*
%TD*%
M02*
