%TF.GenerationSoftware,KiCad,Pcbnew,9.0.0*%
%TF.CreationDate,2026-02-12T20:53:49+05:30*%
%TF.ProjectId,pcb,7063622e-6b69-4636-9164-5f7063625858,rev?*%
%TF.SameCoordinates,Original*%
%TF.FileFunction,Soldermask,Top*%
%TF.FilePolarity,Negative*%
%FSLAX46Y46*%
G04 Gerber Fmt 4.6, Leading zero omitted, Abs format (unit mm)*
G04 Created by KiCad (PCBNEW 9.0.0) date 2026-02-12 20:53:49*
%MOMM*%
%LPD*%
G01*
G04 APERTURE LIST*
G04 Aperture macros list*
%AMRoundRect*
0 Rectangle with rounded corners*
0 $1 Rounding radius*
0 $2 $3 $4 $5 $6 $7 $8 $9 X,Y pos of 4 corners*
0 Add a 4 corners polygon primitive as box body*
4,1,4,$2,$3,$4,$5,$6,$7,$8,$9,$2,$3,0*
0 Add four circle primitives for the rounded corners*
1,1,$1+$1,$2,$3*
1,1,$1+$1,$4,$5*
1,1,$1+$1,$6,$7*
1,1,$1+$1,$8,$9*
0 Add four rect primitives between the rounded corners*
20,1,$1+$1,$2,$3,$4,$5,0*
20,1,$1+$1,$4,$5,$6,$7,0*
20,1,$1+$1,$6,$7,$8,$9,0*
20,1,$1+$1,$8,$9,$2,$3,0*%
G04 Aperture macros list end*
%ADD10RoundRect,0.250000X-1.075000X0.362500X-1.075000X-0.362500X1.075000X-0.362500X1.075000X0.362500X0*%
%ADD11RoundRect,0.250001X0.624999X-0.462499X0.624999X0.462499X-0.624999X0.462499X-0.624999X-0.462499X0*%
%ADD12C,2.400000*%
%ADD13R,2.400000X2.400000*%
%ADD14R,3.500000X2.500000*%
%ADD15O,3.500000X2.500000*%
%ADD16C,1.600000*%
%ADD17O,1.600000X1.600000*%
%ADD18RoundRect,0.250001X-0.462499X-0.624999X0.462499X-0.624999X0.462499X0.624999X-0.462499X0.624999X0*%
%ADD19RoundRect,0.250000X0.550000X0.550000X-0.550000X0.550000X-0.550000X-0.550000X0.550000X-0.550000X0*%
%ADD20C,2.844800*%
%ADD21R,1.700000X1.700000*%
%ADD22C,1.700000*%
%ADD23RoundRect,0.237500X0.250000X0.237500X-0.250000X0.237500X-0.250000X-0.237500X0.250000X-0.237500X0*%
%ADD24RoundRect,0.250000X0.300000X-2.050000X0.300000X2.050000X-0.300000X2.050000X-0.300000X-2.050000X0*%
%ADD25RoundRect,0.250002X5.149998X-4.449998X5.149998X4.449998X-5.149998X4.449998X-5.149998X-4.449998X0*%
%ADD26R,1.600000X1.600000*%
%ADD27RoundRect,0.250000X-0.412500X-1.100000X0.412500X-1.100000X0.412500X1.100000X-0.412500X1.100000X0*%
%ADD28C,3.000000*%
%ADD29C,2.500000*%
%ADD30RoundRect,0.237500X-0.237500X0.250000X-0.237500X-0.250000X0.237500X-0.250000X0.237500X0.250000X0*%
%ADD31RoundRect,0.249999X-3.880001X0.895001X-3.880001X-0.895001X3.880001X-0.895001X3.880001X0.895001X0*%
%ADD32R,2.600000X2.600000*%
%ADD33O,2.600000X2.600000*%
%ADD34RoundRect,0.237500X-0.300000X-0.237500X0.300000X-0.237500X0.300000X0.237500X-0.300000X0.237500X0*%
%ADD35C,1.800000*%
%ADD36RoundRect,0.200000X0.200000X-0.250000X0.200000X0.250000X-0.200000X0.250000X-0.200000X-0.250000X0*%
%ADD37C,1.000000*%
%ADD38RoundRect,0.225000X0.250000X-0.225000X0.250000X0.225000X-0.250000X0.225000X-0.250000X-0.225000X0*%
%ADD39RoundRect,0.237500X-0.250000X-0.237500X0.250000X-0.237500X0.250000X0.237500X-0.250000X0.237500X0*%
%ADD40RoundRect,0.200000X-0.275000X0.200000X-0.275000X-0.200000X0.275000X-0.200000X0.275000X0.200000X0*%
%ADD41RoundRect,0.250000X1.050000X-1.050000X1.050000X1.050000X-1.050000X1.050000X-1.050000X-1.050000X0*%
%ADD42C,2.600000*%
%ADD43C,1.400000*%
%ADD44O,1.400000X1.400000*%
%ADD45RoundRect,0.250000X-1.100000X0.412500X-1.100000X-0.412500X1.100000X-0.412500X1.100000X0.412500X0*%
%ADD46R,1.800000X1.800000*%
%ADD47RoundRect,0.250000X0.550000X-1.500000X0.550000X1.500000X-0.550000X1.500000X-0.550000X-1.500000X0*%
%ADD48RoundRect,0.125000X-0.537500X-0.125000X0.537500X-0.125000X0.537500X0.125000X-0.537500X0.125000X0*%
%ADD49RoundRect,0.500000X0.500000X-0.500000X0.500000X0.500000X-0.500000X0.500000X-0.500000X-0.500000X0*%
%ADD50R,2.500000X3.500000*%
%ADD51O,2.500000X3.500000*%
%ADD52RoundRect,0.112500X0.187500X0.112500X-0.187500X0.112500X-0.187500X-0.112500X0.187500X-0.112500X0*%
%ADD53RoundRect,0.237500X-0.237500X0.300000X-0.237500X-0.300000X0.237500X-0.300000X0.237500X0.300000X0*%
G04 APERTURE END LIST*
D10*
%TO.C,R6*%
X161957500Y-120722500D03*
X161957500Y-125347500D03*
%TD*%
D11*
%TO.C,D8*%
X237940000Y-117275000D03*
X237940000Y-114300000D03*
%TD*%
D12*
%TO.C,F2*%
X210110000Y-68010000D03*
X210110000Y-31010000D03*
%TD*%
D13*
%TO.C,C1*%
X150300000Y-39340000D03*
D12*
X150300000Y-31840000D03*
%TD*%
D14*
%TO.C,Q4*%
X198150000Y-55575000D03*
D15*
X198150000Y-50100000D03*
X198150000Y-44625000D03*
%TD*%
D16*
%TO.C,R2*%
X166595000Y-53060000D03*
D17*
X171675000Y-53060000D03*
%TD*%
D18*
%TO.C,D9*%
X222615000Y-140850000D03*
X225590000Y-140850000D03*
%TD*%
D19*
%TO.C,U4*%
X135782500Y-145395000D03*
D16*
X135782500Y-142855000D03*
X135782500Y-140315000D03*
X135782500Y-137775000D03*
X135782500Y-135235000D03*
X135782500Y-132695000D03*
X135782500Y-130155000D03*
X135782500Y-127615000D03*
X135782500Y-125075000D03*
X135782500Y-122535000D03*
X135782500Y-119995000D03*
X135782500Y-117455000D03*
X135782500Y-114915000D03*
X135782500Y-112375000D03*
X128162500Y-112375000D03*
X128162500Y-114915000D03*
X128162500Y-117455000D03*
X128162500Y-119995000D03*
X128162500Y-122535000D03*
X128162500Y-125075000D03*
X128162500Y-127615000D03*
X128162500Y-130155000D03*
X128162500Y-132695000D03*
X128162500Y-135235000D03*
X128162500Y-137775000D03*
X128162500Y-140315000D03*
X128162500Y-142855000D03*
X128162500Y-145395000D03*
%TD*%
D20*
%TO.C,T1*%
X89657400Y-51630000D03*
X62682600Y-51630000D03*
D21*
X88870000Y-61790000D03*
D22*
X88870000Y-56710000D03*
X88870000Y-46550000D03*
X88870000Y-41470000D03*
X63470000Y-61790000D03*
X63470000Y-56710000D03*
X63470000Y-46550000D03*
X63470000Y-41470000D03*
%TD*%
D23*
%TO.C,R10*%
X124115000Y-146835000D03*
X122290000Y-146835000D03*
%TD*%
D16*
%TO.C,R3*%
X166595000Y-60530000D03*
D17*
X171675000Y-60530000D03*
%TD*%
D12*
%TO.C,F3*%
X96790000Y-84300000D03*
X59790000Y-84300000D03*
%TD*%
D24*
%TO.C,U5*%
X235830000Y-53780000D03*
X237530000Y-53780000D03*
X239230000Y-53780000D03*
D25*
X239230000Y-44630000D03*
D24*
X240930000Y-53780000D03*
X242630000Y-53780000D03*
%TD*%
D26*
%TO.C,C3*%
X136222600Y-59120000D03*
D16*
X131222600Y-59120000D03*
%TD*%
D27*
%TO.C,C10*%
X248082500Y-64475000D03*
X251207500Y-64475000D03*
%TD*%
D28*
%TO.C,K1*%
X224400000Y-132750000D03*
D29*
X230450000Y-130800000D03*
D28*
X230450000Y-118600000D03*
X218400000Y-118550000D03*
D29*
X218450000Y-130800000D03*
%TD*%
D30*
%TO.C,R12*%
X238320000Y-120937500D03*
X238320000Y-122762500D03*
%TD*%
D31*
%TO.C,L1*%
X230135000Y-58820000D03*
X230135000Y-72030000D03*
%TD*%
D32*
%TO.C,D4*%
X124970000Y-32130000D03*
D33*
X109730000Y-32130000D03*
%TD*%
D34*
%TO.C,C6*%
X142150000Y-120155000D03*
X143875000Y-120155000D03*
%TD*%
D35*
%TO.C,J3*%
X46570000Y-70840000D03*
%TD*%
D36*
%TO.C,Q3*%
X233560000Y-140890000D03*
X235460000Y-140890000D03*
X234510000Y-138490000D03*
%TD*%
D37*
%TO.C,J4*%
X223400000Y-34780000D03*
%TD*%
D35*
%TO.C,J2*%
X46540000Y-58590000D03*
%TD*%
D23*
%TO.C,R11*%
X124275000Y-136595000D03*
X122450000Y-136595000D03*
%TD*%
D38*
%TO.C,C4*%
X162237500Y-130780000D03*
X162237500Y-129230000D03*
%TD*%
D39*
%TO.C,R13*%
X243987500Y-121760000D03*
X245812500Y-121760000D03*
%TD*%
D32*
%TO.C,D2*%
X124450000Y-59330000D03*
D33*
X109210000Y-59330000D03*
%TD*%
D39*
%TO.C,R9*%
X140280000Y-146005000D03*
X142105000Y-146005000D03*
%TD*%
D37*
%TO.C,J7*%
X119030000Y-130950000D03*
%TD*%
D16*
%TO.C,R1*%
X166605000Y-42550000D03*
D17*
X171685000Y-42550000D03*
%TD*%
D40*
%TO.C,R8*%
X172127500Y-128120000D03*
X172127500Y-129770000D03*
%TD*%
D39*
%TO.C,R4*%
X162085000Y-134992500D03*
X163910000Y-134992500D03*
%TD*%
D41*
%TO.C,J1*%
X247030000Y-112520000D03*
D42*
X247030000Y-107440000D03*
%TD*%
D43*
%TO.C,R7*%
X190520000Y-29920000D03*
D44*
X190520000Y-27380000D03*
%TD*%
D45*
%TO.C,C9*%
X249905000Y-52722500D03*
X249905000Y-55847500D03*
%TD*%
D46*
%TO.C,D5*%
X166600000Y-24280000D03*
D35*
X169140000Y-24280000D03*
%TD*%
D37*
%TO.C,J8*%
X152370000Y-142460000D03*
%TD*%
D26*
%TO.C,C2*%
X144760000Y-73412380D03*
D16*
X144760000Y-68412380D03*
%TD*%
D18*
%TO.C,D6*%
X168882500Y-120705000D03*
X171857500Y-120705000D03*
%TD*%
D32*
%TO.C,D3*%
X125420000Y-44080000D03*
D33*
X110180000Y-44080000D03*
%TD*%
D39*
%TO.C,R14*%
X213937500Y-140760000D03*
X215762500Y-140760000D03*
%TD*%
D47*
%TO.C,C5*%
X148672500Y-128815000D03*
X148672500Y-123415000D03*
%TD*%
D48*
%TO.C,U2*%
X166257500Y-126775000D03*
X166257500Y-127425000D03*
X166257500Y-128075000D03*
X166257500Y-128725000D03*
X168532500Y-128725000D03*
X168532500Y-128075000D03*
X168532500Y-127425000D03*
X168532500Y-126775000D03*
%TD*%
D39*
%TO.C,R5*%
X166715000Y-135552500D03*
X168540000Y-135552500D03*
%TD*%
D49*
%TO.C,SW1*%
X146312500Y-139445000D03*
X146312500Y-133445000D03*
%TD*%
D11*
%TO.C,D7*%
X238190000Y-133005000D03*
X238190000Y-130030000D03*
%TD*%
D32*
%TO.C,D1*%
X109650000Y-70540000D03*
D33*
X124890000Y-70540000D03*
%TD*%
D12*
%TO.C,F1*%
X174190000Y-82800000D03*
X137190000Y-82800000D03*
%TD*%
D50*
%TO.C,U1*%
X183350000Y-72700000D03*
D51*
X188825000Y-72700000D03*
X194300000Y-72700000D03*
%TD*%
D52*
%TO.C,D10*%
X241835000Y-62355000D03*
X239735000Y-62355000D03*
%TD*%
D37*
%TO.C,J6*%
X240090000Y-67280000D03*
%TD*%
%TO.C,J5*%
X224310000Y-106400000D03*
%TD*%
D14*
%TO.C,Q2*%
X180780000Y-55655000D03*
D15*
X180780000Y-50180000D03*
X180780000Y-44705000D03*
%TD*%
D37*
%TO.C,Y1*%
X138942500Y-112975000D03*
X141482500Y-112975000D03*
%TD*%
D53*
%TO.C,C8*%
X125252500Y-128052500D03*
X125252500Y-129777500D03*
%TD*%
%TO.C,C7*%
X138512500Y-123582500D03*
X138512500Y-125307500D03*
%TD*%
M02*
