M48
; DRILL file {KiCad 9.0.0} date 2026-02-12T20:53:52+0530
; FORMAT={-:-/ absolute / metric / decimal}
; #@! TF.CreationDate,2026-02-12T20:53:52+05:30
; #@! TF.GenerationSoftware,Kicad,Pcbnew,9.0.0
; #@! TF.FileFunction,MixedPlating,1,2
FMAT,2
METRIC
; #@! TA.AperFunction,Plated,PTH,ViaDrill
T1C0.300
; #@! TA.AperFunction,Plated,PTH,ComponentDrill
T2C0.500
; #@! TA.AperFunction,Plated,PTH,ComponentDrill
T3C0.700
; #@! TA.AperFunction,Plated,PTH,ComponentDrill
T4C0.800
; #@! TA.AperFunction,Plated,PTH,ComponentDrill
T5C0.900
; #@! TA.AperFunction,Plated,PTH,ComponentDrill
T6C1.000
; #@! TA.AperFunction,Plated,PTH,ComponentDrill
T7C1.200
; #@! TA.AperFunction,Plated,PTH,ComponentDrill
T8C1.300
; #@! TA.AperFunction,Plated,PTH,ComponentDrill
T9C1.500
; #@! TA.AperFunction,NonPlated,NPTH,ComponentDrill
T10C2.845
%
G90
G05
T1
X159.51Y-97.18
X159.51Y-107.78
X159.51Y-115.56
X160.111Y-125.321
X161.41Y-117.3
X163.91Y-134.0
X165.345Y-133.025
X166.847Y-121.442
X207.86Y-140.46
X243.58Y-126.5
T2
X138.942Y-112.975
X141.482Y-112.975
T3
X190.52Y-27.38
X190.52Y-29.92
T4
X128.162Y-112.375
X128.162Y-114.915
X128.162Y-117.455
X128.162Y-119.995
X128.162Y-122.535
X128.162Y-125.075
X128.162Y-127.615
X128.162Y-130.155
X128.162Y-132.695
X128.162Y-135.235
X128.162Y-137.775
X128.162Y-140.315
X128.162Y-142.855
X128.162Y-145.395
X131.223Y-59.12
X135.782Y-112.375
X135.782Y-114.915
X135.782Y-117.455
X135.782Y-119.995
X135.782Y-122.535
X135.782Y-125.075
X135.782Y-127.615
X135.782Y-130.155
X135.782Y-132.695
X135.782Y-135.235
X135.782Y-137.775
X135.782Y-140.315
X135.782Y-142.855
X135.782Y-145.395
X136.223Y-59.12
X144.76Y-68.412
X144.76Y-73.412
X166.595Y-53.06
X166.595Y-60.53
X166.605Y-42.55
X171.675Y-53.06
X171.675Y-60.53
X171.685Y-42.55
T5
X46.54Y-58.59
X46.57Y-70.84
X166.6Y-24.28
X169.14Y-24.28
T6
X63.47Y-41.47
X63.47Y-46.55
X63.47Y-56.71
X63.47Y-61.79
X88.87Y-41.47
X88.87Y-46.55
X88.87Y-56.71
X88.87Y-61.79
X218.45Y-130.8
X230.45Y-130.8
T7
X59.79Y-84.3
X96.79Y-84.3
X137.19Y-82.8
X150.3Y-31.84
X150.3Y-39.34
X174.19Y-82.8
X210.11Y-31.01
X210.11Y-68.01
T8
X109.21Y-59.33
X109.65Y-70.54
X109.73Y-32.13
X110.18Y-44.08
X124.45Y-59.33
X124.89Y-70.54
X124.97Y-32.13
X125.42Y-44.08
X218.4Y-118.55
X224.4Y-132.75
X230.45Y-118.6
X247.03Y-107.44
X247.03Y-112.52
T9
X180.78Y-44.705
X180.78Y-50.18
X180.78Y-55.655
X183.35Y-72.7
X188.825Y-72.7
X194.3Y-72.7
X198.15Y-44.625
X198.15Y-50.1
X198.15Y-55.575
T10
X62.683Y-51.63
X89.657Y-51.63
M30
